Coordinates
version=1
nRows=17
nColumns=40
inDegrees=yes

Units are S.I. units (second, meters, Newtons, ...)
Angles are in degrees.

endheader
time	pelvis_tilt	pelvis_list	pelvis_rotation	pelvis_tx	pelvis_ty	pelvis_tz	hip_flexion_r	hip_adduction_r	hip_rotation_r	knee_angle_r	knee_angle_r_beta	ankle_angle_r	subtalar_angle_r	mtp_angle_r	hip_flexion_l	hip_adduction_l	hip_rotation_l	knee_angle_l	knee_angle_l_beta	ankle_angle_l	subtalar_angle_l	mtp_angle_l	lumbar_extension	lumbar_bending	lumbar_rotation	arm_flex_r	arm_add_r	arm_rot_r	elbow_flex_r	pro_sup_r	wrist_flex_r	wrist_dev_r	arm_flex_l	arm_add_l	arm_rot_l	elbow_flex_l	pro_sup_l	wrist_flex_l	wrist_dev_l
     12.97000000	     -5.20106203	     -5.05607369	     -4.69906657	      1.10159956	      0.92943350	      0.42457953	     26.04894879	     -0.80068117	    -12.13608452	     11.43564207	     11.43564207	      2.79796817	      7.00596732	      8.52459627	      8.09545865	     -6.94394114	    -10.15762009	     19.07453497	     19.07453497	     16.06798637	    -11.37896191	     -1.31555141	    -11.88350646	      5.32375612	      0.26113781	     -4.20058736	    -15.49096420	    -16.68787622	     29.78280204	     47.43366477	      0.00000000	      0.00000000	     16.65757696	    -17.46338838	     -2.72048797	     77.08469727	     46.78697950	      0.00000000	      0.00000000
     12.98285714	     -5.36530570	     -4.94246055	     -4.87372968	      1.10206766	      0.92851676	      0.42691355	     25.69957521	     -0.62005984	    -12.58553627	     11.47378509	     11.47378509	      3.04847263	      6.74776470	      8.43802723	      7.82599961	     -6.95078006	    -10.28968388	     19.06061951	     19.06061951	     16.33277872	    -11.51951626	     -1.37460912	    -11.49785420	      5.25851322	      0.29666957	     -4.13241705	    -15.36109714	    -16.68284148	     29.82415734	     47.43089434	      0.00000000	      0.00000000	     16.70704812	    -17.42706895	     -2.71245135	     77.13608027	     46.78837627	      0.00000000	      0.00000000
     12.99571429	     -5.33373020	     -5.11955119	     -4.89774290	      1.10299872	      0.92788749	      0.42944890	     25.11994947	     -0.26062458	    -13.14499190	     12.04963400	     12.04963400	      3.40995735	      6.40542044	      8.03794555	      7.22556624	     -7.25620665	    -10.24220787	     18.88166645	     18.88166645	     16.68183883	    -11.48080664	     -1.36805901	    -11.31835152	      5.49035282	      0.31024338	     -3.99547508	    -14.73273090	    -16.65976681	     29.94213649	     47.41937248	      0.00000000	      0.00000000	     16.72560454	    -17.12544053	     -2.62281212	     77.29084691	     46.78878180	      0.00000000	      0.00000000
     13.00857143	     -5.19826376	     -4.99528930	     -4.96668979	      1.10426830	      0.92702127	      0.43200008	     24.52870360	     -0.23065143	    -13.36760600	     12.94548060	     12.94548060	      2.45165842	      5.63098966	      3.18120948	      6.57227322	     -7.30166887	    -10.62974581	     18.92694572	     18.92694572	     17.79041711	    -10.62790197	     -0.15060255	    -11.25274810	      5.38821788	      0.37665649	     -4.23018504	    -14.30718157	    -17.81897587	     31.26269234	     47.35392614	      0.00000000	      0.00000000	     16.42563477	    -16.89873959	     -2.97463593	     78.19247058	     46.90821031	      0.00000000	      0.00000000
     13.02142857	     -5.07996271	     -5.02408493	     -4.97353598	      1.10568376	      0.92626556	      0.43461566	     23.98053940	     -0.08830790	    -13.40172116	     14.16231956	     14.16231956	      2.85299281	      4.90244204	      2.55643742	      5.89360265	     -7.44078865	    -10.61956561	     18.81673761	     18.81673761	     18.16870218	    -10.64812073	     -0.08160332	    -11.06914855	      5.48907748	      0.44887005	     -4.01412400	    -14.06948261	    -17.78600501	     31.32085146	     47.34009067	      0.00000000	      0.00000000	     16.34345750	    -16.67667976	     -2.91418484	     78.08308309	     46.91094207	      0.00000000	      0.00000000
     13.03428571	     -4.99543387	     -4.97126823	     -4.96193305	      1.10724989	      0.92530441	      0.43732011	     23.56768473	     -0.01557704	    -13.09933519	     15.52322504	     15.52322504	      3.14285047	      3.80906124	      1.47794196	      5.30635747	     -7.51644629	    -10.63356861	     18.81780714	     18.81780714	     18.67136575	    -10.58805944	      0.25628255	    -10.78646258	      5.50957891	      0.51853256	     -3.81902739	    -13.76448916	    -17.69866331	     31.51640307	     47.30668730	      0.00000000	      0.00000000	     16.10060375	    -16.37291101	     -2.95648420	     77.97060489	     46.92796209	      0.00000000	      0.00000000
     13.04714286	     -4.87632461	     -4.94743520	     -4.93453301	      1.10893069	      0.92432871	      0.44015300	     23.10960573	      0.12134226	    -12.55193935	     16.74585153	     16.74585153	      3.44940898	      2.74405174	      0.31435912	      4.76857828	     -7.64582333	    -10.55046585	     19.00603194	     19.00603194	     19.30401616	    -10.53392955	      0.78374864	    -10.52227371	      5.51750308	      0.55747295	     -3.60166735	    -13.47389384	    -17.50779772	     31.86103254	     47.25616408	      0.00000000	      0.00000000	     15.72353324	    -16.04615496	     -3.10674840	     77.85652002	     46.95464027	      0.00000000	      0.00000000
     13.06000000	     -4.54777184	     -5.03818990	     -4.85268165	      1.11083503	      0.92373867	      0.44285915	     22.40760701	      0.30304724	    -12.29238812	     17.82307853	     17.82307853	      3.95755314	      2.15312181	     -0.27966733	      4.10593615	     -7.89782621	    -10.42669413	     19.39948907	     19.39948907	     19.70918811	    -10.73334718	      0.94633445	    -10.51196489	      5.77537779	      0.65612179	     -3.24695158	    -13.38518849	    -17.39078918	     32.10278889	     47.23216832	      0.00000000	      0.00000000	     15.38920410	    -15.78345263	     -3.12635679	     77.70821424	     46.95871291	      0.00000000	      0.00000000
     13.07285714	     -4.30898063	     -5.03079449	     -4.79620033	      1.11264921	      0.92305003	      0.44574244	     21.89038014	      0.52427014	    -11.44263315	     18.72790760	     18.72790760	      4.02050997	      0.65382658	     -1.96629016	      3.79069050	     -8.10539934	    -10.24670425	     20.30302251	     20.30302251	     20.86699047	    -10.73934194	      2.84454081	    -10.36346493	      5.86382574	      0.58663999	     -3.03013946	    -13.33155472	    -16.17821589	     33.07960913	     47.03748758	      0.00000000	      0.00000000	     14.75415194	    -15.26078515	     -4.03639228	     77.54111550	     47.07678430	      0.00000000	      0.00000000
     13.08571429	     -3.96352134	     -5.06923514	     -4.69760911	      1.11447478	      0.92265448	      0.44851810	     21.38375913	      0.64468066	    -11.10893907	     19.76218879	     19.76218879	      4.78649960	      0.24238219	     -2.41547374	      3.45114058	     -8.37174617	     -9.99847252	     21.27864545	     21.27864545	     20.98571632	    -11.18848532	      2.75238579	    -10.38910894	      6.04755797	      0.71700961	     -2.54068039	    -13.28930808	    -16.02505679	     33.29349723	     47.01484682	      0.00000000	      0.00000000	     14.28170226	    -14.99942880	     -3.94193222	     77.25008287	     47.06892190	      0.00000000	      0.00000000
     13.09857143	     -3.69381066	     -5.07674089	     -4.57826209	      1.11612573	      0.92230887	      0.45134121	     21.01931250	      0.77238013	    -10.67870737	     20.68666402	     20.68666402	      5.50175891	     -0.44551066	     -2.76498953	      3.49168095	     -8.65714564	     -9.63133634	     22.76017356	     22.76017356	     21.00260191	    -11.92043686	      2.62142656	    -10.30926629	      6.16077388	      0.82008763	     -1.99595160	    -13.20953764	    -15.78215370	     33.59647950	     46.98098602	      0.00000000	      0.00000000	     13.70706589	    -14.69363268	     -3.98141619	     76.78875317	     47.06824267	      0.00000000	      0.00000000
     13.11142857	     -3.35439312	     -5.10945219	     -4.46301732	      1.11765105	      0.92225383	      0.45421270	     20.56740439	      0.93574626	    -10.30470803	     21.44635871	     21.44635871	      6.22117635	     -1.04347068	     -3.06458489	      3.69397981	     -9.00641604	     -9.17511072	     24.66187691	     24.66187691	     20.83577632	    -12.77619306	      2.38944759	    -10.34756230	      6.28146407	      0.94010388	     -1.37290131	    -13.18294455	    -15.52719590	     33.93277317	     46.94687553	      0.00000000	      0.00000000	     13.11592101	    -14.34809180	     -4.07342629	     76.24295792	     47.06860537	      0.00000000	      0.00000000
     13.12428571	     -2.98646122	     -5.13635694	     -4.30484442	      1.11902162	      0.92239914	      0.45701022	     20.07468711	      1.07282740	    -10.02792378	     22.08803704	     22.08803704	      6.92130339	     -1.53035280	     -3.33714908	      4.15720812	     -9.39677244	     -8.66923978	     27.04451685	     27.04451685	     20.45240287	    -13.72430852	      2.02627740	    -10.44303983	      6.42573703	      1.06947036	     -0.66805235	    -13.17337218	    -15.27095072	     34.29157573	     46.91373859	      0.00000000	      0.00000000	     12.51506981	    -13.99597790	     -4.17879388	     75.60989888	     47.06727525	      0.00000000	      0.00000000
     13.13714286	     -2.78300287	     -5.14697331	     -4.08501868	      1.12009191	      0.92243833	      0.45975268	     19.73972022	      1.19939767	     -9.84140950	     22.61750580	     22.61750580	      7.57802725	     -2.06783658	     -3.54789220	      5.14825241	     -9.83183338	     -8.05028287	     29.96413881	     29.96413881	     19.76464876	    -14.76812077	      1.42979795	    -10.34431231	      6.54203608	      1.08446620	      0.05639955	    -13.17522336	    -14.84886688	     34.71282117	     46.86419029	      0.00000000	      0.00000000	     11.81751696	    -13.59212305	     -4.42797125	     74.65535537	     47.07260736	      0.00000000	      0.00000000
     13.15000000	     -2.46104674	     -5.17275255	     -3.84227716	      1.12102012	      0.92268406	      0.46249540	     19.24544151	      1.31968985	     -9.79542817	     23.07967450	     23.07967450	      8.27193154	     -2.47863892	     -3.74575888	      6.19360085	    -10.30330059	     -7.43592168	     33.15307139	     33.15307139	     18.75987499	    -15.80417712	      0.55433885	    -10.37451769	      6.61551844	      1.09448451	      0.91749646	    -13.25361055	    -14.10720828	     35.21482015	     46.78602177	      0.00000000	      0.00000000	     11.28454192	    -13.15342124	     -4.86403853	     73.41329023	     47.09209405	      0.00000000	      0.00000000
     13.16285714	     -1.98347060	     -5.23447813	     -3.56095201	      1.12179617	      0.92333965	      0.46511525	     18.44926629	      1.44298468	     -9.94128932	     23.30921942	     23.30921942	      8.88608603	     -2.51728340	     -3.96868620	      7.25500870	    -10.83745035	     -6.85055608	     36.59897932	     36.59897932	     17.63586081	    -16.55792288	      0.13868096	    -10.76504388	      6.76575097	      1.34263488	      1.80844135	    -13.30120078	    -13.88532328	     35.58091677	     46.75938635	      0.00000000	      0.00000000	     10.73113475	    -12.80096362	     -4.82433793	     72.75564619	     47.07823209	      0.00000000	      0.00000000
     13.17571429	     -1.91388680	     -5.29988895	     -3.16423725	      1.12215810	      0.92339225	      0.46756866	     18.08136426	      1.55280058	    -10.30104220	     23.48639565	     23.48639565	      9.36452323	     -2.58569238	     -4.15239964	      9.07178503	    -11.41474654	     -6.09612374	     40.39283119	     40.39283119	     16.29820432	    -17.20811203	     -0.36227890	    -10.55860398	      6.92564597	      1.24193486	      2.66739467	    -13.36213341	    -13.41422209	     36.04860853	     46.70856337	      0.00000000	      0.00000000	     10.01039148	    -12.48812080	     -4.91060335	     71.34762074	     47.06305224	      0.00000000	      0.00000000
